<svg width="32" height="32" viewBox="0 0 32 32" fill="none" xmlns="http://www.w3.org/2000/svg">
<path fill-rule="evenodd" clip-rule="evenodd" d="M27.3335 2.66666H6.72016C6.28016 2.66666 5.8535 2.89332 5.6135 3.26666L3.56016 6.33332C3.41364 6.54992 3.33474 6.80516 3.3335 7.06666V24C3.3335 24.7333 3.9335 25.3333 4.66683 25.3333H7.3335C8.06683 25.3333 8.66683 25.9333 8.66683 26.6667V28C8.66683 28.7333 9.26683 29.3333 10.0002 29.3333H11.9468C12.3868 29.3333 12.8135 29.1067 13.0535 28.7333L14.9335 25.92C15.1868 25.5467 15.6002 25.32 16.0402 25.32H21.4402C21.8002 25.32 22.1335 25.1733 22.3868 24.9333L28.2668 19.0533C28.391 18.9292 28.4892 18.7815 28.5556 18.619C28.622 18.4564 28.6552 18.2822 28.6535 18.1067V3.99999C28.6668 3.26666 28.0668 2.66666 27.3335 2.66666ZM14.3868 17.1467C14.3868 17.5733 14.0402 17.9067 13.6268 17.9067H12.1068C11.9053 17.9067 11.712 17.8266 11.5694 17.6841C11.4269 17.5415 11.3468 17.3482 11.3468 17.1467V9.53332C11.3468 9.10666 11.6935 8.77332 12.1068 8.77332H13.6268C14.0535 8.77332 14.3868 9.11999 14.3868 9.53332V17.1467ZM22.0002 17.1467C22.0002 17.5733 21.6535 17.9067 21.2402 17.9067H19.7202C19.6204 17.9067 19.5215 17.887 19.4293 17.8488C19.3371 17.8106 19.2533 17.7546 19.1828 17.6841C19.1122 17.6135 19.0562 17.5297 19.018 17.4375C18.9798 17.3453 18.9602 17.2465 18.9602 17.1467V9.53332C18.9602 9.10666 19.3068 8.77332 19.7202 8.77332H21.2402C21.6668 8.77332 22.0002 9.11999 22.0002 9.53332V17.1467Z" fill="#004D8C"/>
</svg>
